<svg xmlns="http://www.w3.org/2000/svg" viewBox="0 0 296.68 300"><defs><style>.cls-1{fill:#410099;}</style></defs><g id="Large_Preview" data-name="Large Preview"><path class="cls-1" d="M34.46,182.65a60.88,60.88,0,0,0,22.19,47.27l-9.71,17.44A13.93,13.93,0,0,0,45.76,258a13.89,13.89,0,0,0,13.36,10,14,14,0,0,0,12.17-7.17L81.5,242.46a60.84,60.84,0,0,0,14.43,1.71H200.75a61.27,61.27,0,0,0,14.42-1.72l10.22,18.4a13.92,13.92,0,0,0,24.33-13.52L240,229.93a61.45,61.45,0,0,0,22.19-47.28V170.33A12.3,12.3,0,0,0,261,145.78H53.82v-81A24.52,24.52,0,0,1,102.58,61H89.71A12.14,12.14,0,0,0,77.58,73.13V85.65a4.11,4.11,0,0,0,4.11,4.1h50.56a4.11,4.11,0,0,0,4.11-4.1V73.13A12.14,12.14,0,0,0,124.23,61H110.86a32.73,32.73,0,0,0-65.25,3.73v81h-10a12.3,12.3,0,0,0-1.18,24.55Zm8.21-12.26H254v12.26A53.35,53.35,0,0,1,200.75,236H95.93a53.1,53.1,0,0,1-32.37-11,52.78,52.78,0,0,1-20.89-42.28Zm215.44-8.22H35.64a4.09,4.09,0,1,1,0-8.18H261a4.09,4.09,0,0,1,0,8.18h-2.93Zm-204,89.15,9.2-16.53a59.28,59.28,0,0,0,10.19,5.13l-9.4,16.91a5.86,5.86,0,0,1-7.79,2.23A5.7,5.7,0,0,1,54.13,251.32Zm186.21,7.74a5.81,5.81,0,0,1-7.77-2.22l-9.41-16.91a61.47,61.47,0,0,0,10.18-5.14l9.19,16.51A5.71,5.71,0,0,1,240.34,259.06ZM89.71,69.22h34.52a3.92,3.92,0,0,1,3.92,3.91v8.41H85.8V73.13A3.91,3.91,0,0,1,89.71,69.22Z"/><path class="cls-1" d="M93,100.87a4.11,4.11,0,1,0-8.21,0v8.66a4.11,4.11,0,0,0,8.21,0Z"/><path class="cls-1" d="M111.07,100.87a4.11,4.11,0,1,0-8.21,0v8.66a4.11,4.11,0,0,0,8.21,0Z"/><path class="cls-1" d="M129.16,100.87a4.11,4.11,0,1,0-8.21,0v8.66a4.11,4.11,0,0,0,8.21,0Z"/><path class="cls-1" d="M88.89,118.24a4.11,4.11,0,0,0-4.11,4.11V131A4.11,4.11,0,0,0,93,131v-8.66A4.11,4.11,0,0,0,88.89,118.24Z"/><path class="cls-1" d="M107,118.24a4.11,4.11,0,0,0-4.11,4.11V131a4.11,4.11,0,0,0,8.21,0v-8.66A4.11,4.11,0,0,0,107,118.24Z"/><path class="cls-1" d="M125.06,118.24a4.11,4.11,0,0,0-4.11,4.11V131a4.11,4.11,0,0,0,8.21,0v-8.66A4.11,4.11,0,0,0,125.06,118.24Z"/></g></svg>