<svg xmlns="http://www.w3.org/2000/svg" viewBox="0 0 296.68 300"><defs><style>.cls-1{fill:#ffb71b;}</style></defs><g id="Large_Preview" data-name="Large Preview"><path class="cls-1" d="M267.94,186.9a20.49,20.49,0,0,0,5.4-13.94A20.81,20.81,0,0,0,267.1,158a21.29,21.29,0,0,0-15-6.11H118.87a14.72,14.72,0,0,0-12.73-22H72.36a14.7,14.7,0,0,0-14.1,10.56V88.6A14.17,14.17,0,0,0,43.87,74.36H37.93A14.27,14.27,0,0,0,23.34,88.6V200.05a8.75,8.75,0,0,0,8.41,8.84h5.69v9.61a6.91,6.91,0,0,0,7.16,7.14h5.53a7,7,0,0,0,7.25-7.14v-9.61h182.8v9.61a7.15,7.15,0,0,0,7.47,7.14h5.54c4.31,0,7.81-3.2,7.81-7.14v-9.61h3.92a8.76,8.76,0,0,0,8.42-8.84v-5.14A8.75,8.75,0,0,0,267.94,186.9Zm-14.54,22V218h-5.62v-9.15Zm-203.62,0V218H45v-9.15Zm56.36-57H72.36a7.22,7.22,0,0,1,0-14.44h33.78a7.22,7.22,0,0,1,0,14.44Zm0,7.6H252.08a13.39,13.39,0,1,1,0,26.78H58.26V159.53h47.88Zm159.6,35.38v5.14c0,.61-.53,1.24-.82,1.24H31.75c-.28,0-.82-.63-.82-1.24v-6.14h234A1,1,0,0,1,265.74,194.91Zm-215.08-8.6H30.93V88.6a6.67,6.67,0,0,1,7-6.64h5.94a6.57,6.57,0,0,1,6.79,6.64Zm9-34.38H58.26v-3.27A15.67,15.67,0,0,0,59.62,151.93Z"/></g></svg>