<svg xmlns="http://www.w3.org/2000/svg" viewBox="0 0 296.68 300"><defs><style>.cls-1{fill:#410099;}</style></defs><g id="Large_Preview" data-name="Large Preview"><path class="cls-1" d="M256.55,137.43a339.6,339.6,0,0,1-2.82-40.93c-.13-16.41,1-52.08,2.82-65.85a5,5,0,0,0-5-5.65H172.33a5,5,0,0,0-5,5v9.46H116.39a5,5,0,0,0-5,5V146.42l-58.31,58.2a44.76,44.76,0,0,0,0,63.07c4.85,4.85,11.85,7.31,20.8,7.31h0a63.37,63.37,0,0,0,12.93-1.47,114.28,114.28,0,0,0,34-14,38.81,38.81,0,0,0,9,1h.1c20.74,0,48.73-13.7,60.88-25.94l44-43.93a74.24,74.24,0,0,0,21.8-52.58A4.63,4.63,0,0,0,256.55,137.43ZM243.73,96.58a347,347,0,0,0,2.86,41.79,64.35,64.35,0,0,1-18.87,45.21l-44,43.94c-10.75,10.84-36.05,23-53.82,23h-.13a27.46,27.46,0,0,1-7.47-.92,5.65,5.65,0,0,0-1.1-.35,13.28,13.28,0,0,1-5.08-3.07,34.83,34.83,0,0,1,0-48.94l59.77-59.65a5,5,0,0,0,1.47-3.54V74.87H244C243.78,83.05,243.68,90.74,243.73,96.58ZM177.34,58.43h67.23q-.13,3.2-.26,6.44h-67ZM167.33,73v6.44H121.39V73Zm10-24.52V35H246c-.35,3.83-.67,8.44-1,13.43ZM167.33,63H121.39V49.47h45.94ZM121.39,148.5V89.39h45.94V132L109,190.18a44.76,44.76,0,0,0,0,63.07c.33.33.68.65,1,1a100.65,100.65,0,0,1-25.33,9.53c-11.41,2.42-20.13,1.32-24.56-3.11a34.83,34.83,0,0,1,0-48.94L119.92,152A5,5,0,0,0,121.39,148.5Z"/></g></svg>