<svg xmlns="http://www.w3.org/2000/svg" viewBox="0 0 296.68 300"><defs><style>.cls-1{fill:#410099;}</style></defs><g id="Large_Preview" data-name="Large Preview"><path class="cls-1" d="M73.49,25A6.13,6.13,0,0,0,69,26.64,6.26,6.26,0,0,0,66.92,31l-3.59,80.7a8.28,8.28,0,0,0,2.41,6.3L84,135.1,79.44,252.94v.86A21.25,21.25,0,0,0,100.67,275a21.25,21.25,0,0,0,21.22-22.06l-4.6-117.84,18.1-16.94.16-.15a8.19,8.19,0,0,0,2.44-6.23L134.4,31a6.29,6.29,0,0,0-12.56.56l3.5,78.78L106.6,127.88a6.31,6.31,0,0,0-2,4.84l4.7,120.69A8.66,8.66,0,1,1,92,253.8v-.48l4.71-120.6a6.27,6.27,0,0,0-2-4.84L76,110.37l3.5-78.8A6.28,6.28,0,0,0,73.49,25Z"/><path class="cls-1" d="M109.82,93.94a6.29,6.29,0,0,0,6.28-6.29V31.29a6.29,6.29,0,1,0-12.57,0V87.65A6.29,6.29,0,0,0,109.82,93.94Z"/><path class="cls-1" d="M97.8,87.65V31.29a6.29,6.29,0,1,0-12.58,0V87.65a6.29,6.29,0,1,0,12.58,0Z"/><path class="cls-1" d="M233.23,77.2C232,55.54,221.52,37,206,28.75a32,32,0,0,0-30,0C160.52,37,150.09,55.53,148.81,77.19c-1.36,23.13,8.19,44.93,25.57,58.39L169.8,252.94a21.24,21.24,0,1,0,42.44,0l-4.57-117.34C225,122.12,234.59,100.32,233.23,77.2ZM195,132.73l4.71,120.66a8.74,8.74,0,0,1-2.44,6.4,8.66,8.66,0,0,1-12.44,0,8.71,8.71,0,0,1-2.44-6.39l4.71-120.68a6.26,6.26,0,0,0-2.7-5.42c-15.59-10.78-24.19-29.24-23-49.38,1-17,9.08-32,20.56-38.07a19.38,19.38,0,0,1,18.2,0c11.49,6.09,19.55,21,20.55,38.08,1.19,20.14-7.41,38.59-23,49.37A6.26,6.26,0,0,0,195,132.73Z"/></g></svg>