<svg xmlns="http://www.w3.org/2000/svg" viewBox="0 0 296.68 300"><defs><style>.cls-1{fill:#410099;}</style></defs><g id="Large_Preview" data-name="Large Preview"><path class="cls-1" d="M243.85,146c-10.93,2.53-17.1,10.5-23,21.68l-.16.3L202,177.63l-.56-.51c-3.62-3.28-8.61-5-14.44-5H155.57l-.19-.08a31,31,0,0,1-5-3.42c-4.29-3.29-9.15-7-14.43-7H109.68c-8.4,0-18.1,6.26-23.85,11.62l-.12.12c-5,5-12.32,12-17.58,17l-.77.73-7.28-7.28a4.18,4.18,0,0,0-5.88,0L27.93,210.1a4.18,4.18,0,0,0,0,5.89l57.79,57.79a4.16,4.16,0,0,0,5.89,0l26.27-26.27a4.16,4.16,0,0,0,0-5.88l-2.43-2.44,1.68-.55a9.7,9.7,0,0,1,3.06-.42H197.5c2,0,5.39,0,24.51-17.78,9.31-8.66,18.51-18,20.63-20.38,4.1-4.6,21.9-31.26,27-43.17a4.2,4.2,0,0,0-.48-4.12C265.27,147.56,255.7,143.19,243.85,146ZM88.66,265l-51.9-51.9,20.38-20.39,51.91,51.91ZM260.35,157.06c-6.11,12-20.43,33.54-23.92,37.45-6.05,6.79-32.84,32.73-39,35.3l-.2.09h-77a15.73,15.73,0,0,0-9.77,2.95l-.76.56L73.25,197l.81-.77c4.25-4.06,12.18-11.65,17.48-16.95,4.88-4.52,12.61-9.36,18.14-9.36H136c2.27,0,5.73,2.51,9.37,5.3s6.8,5.21,10.15,5.21H187c8,0,11.6,4.51,11.6,9s-3.59,9-11.6,9H139.71a4.16,4.16,0,0,0,0,8.32H187c13.08,0,19.92-8.7,19.92-17.3a16.27,16.27,0,0,0-.45-3.78l-.19-.83,19.41-10.08a4.1,4.1,0,0,0,1.78-1.79c6.31-12.26,11.08-17.2,18.26-18.86,5.11-1.19,10.41-.61,14.19,1.56l.9.51Z"/><rect class="cls-1" x="58.23" y="211.96" width="8.33" height="12.68" transform="translate(-136.08 108.05) rotate(-45)"/><path class="cls-1" d="M138.18,147.37a4.16,4.16,0,1,0,8.32,0V129c0-12.12-10.2-27-25.4-29.95l-.88-.17V87A4.13,4.13,0,0,0,119,84l-4-4V71.19a4.15,4.15,0,0,0-1.21-2.94l-4-4v-14a4.16,4.16,0,1,0-8.32,0V65.94a4.11,4.11,0,0,0,1.22,2.94l4,4V81.7a4.15,4.15,0,0,0,1.22,3l4,4v15.13H78.2V88.68L81,85.86H89.8a4.16,4.16,0,0,0,0-8.32H83.46V72.92l4-4a4.11,4.11,0,0,0,1.22-2.94V50.18a4.16,4.16,0,1,0-8.32,0v14l-4,4a4.12,4.12,0,0,0-1.22,2.94V80l-4,4A4.13,4.13,0,0,0,69.88,87V98.87L69,99C53.81,102,43.61,116.88,43.61,129v42a4.16,4.16,0,1,0,8.32,0V129c0-8.46,7.82-19.54,18.29-21.71l.73-.15.41.63a9.36,9.36,0,0,0,7.93,4.37H110.8a9.38,9.38,0,0,0,7.94-4.37l.4-.64.74.16c10.47,2.16,18.3,13.25,18.3,21.71Z"/><path class="cls-1" d="M181.74,146.28a25.29,25.29,0,0,0,25.18-25.35c0-18-19.75-41.87-22-44.54a4.16,4.16,0,0,0-6.36,0c-2.25,2.67-22,26.59-22,44.54A25.3,25.3,0,0,0,181.74,146.28Zm-.87-59.35.87-1.18.88,1.18c4.8,6.48,16,22.76,16,34a16.86,16.86,0,1,1-33.71,0C164.89,109.69,176.06,93.41,180.87,86.93Z"/><path class="cls-1" d="M35.25,32.81c6.55,3.61,17.12,5.77,28.28,5.77h78.81a16,16,0,0,1,9,2.86l14.6,12a4.08,4.08,0,0,0,2.63.94A4.16,4.16,0,0,0,171.25,47L156.47,34.85a24.48,24.48,0,0,0-14.13-4.59H63.53c-11.56,0-20.11-2.45-24.25-4.74a4.24,4.24,0,0,0-2-.52,3.83,3.83,0,0,0-1.16.17,4.11,4.11,0,0,0-2.49,2,4.16,4.16,0,0,0,1.63,5.66Z"/></g></svg>