<svg xmlns="http://www.w3.org/2000/svg" viewBox="0 0 296.68 300"><defs><style>.cls-1{fill:#410099;}</style></defs><g id="Large_Preview" data-name="Large Preview"><path class="cls-1" d="M269.57,164.59h-93v-24.5a3.76,3.76,0,0,0-3.77-3.76H169V60a20.62,20.62,0,0,0-41.24,0v76.37h-3.88a3.76,3.76,0,0,0-3.76,3.76v24.5h-93a3.77,3.77,0,0,0-3.77,3.77v17.91A3.77,3.77,0,0,0,27.11,190h4.4v66.85a3.77,3.77,0,0,0,3.77,3.77H261.39a3.77,3.77,0,0,0,3.77-3.77V190h4.41a3.77,3.77,0,0,0,3.77-3.77V168.36A3.77,3.77,0,0,0,269.57,164.59ZM135.25,60a13.09,13.09,0,0,1,26.17,0v76.37H135.25Zm-7.64,83.9h41.45v20.73H127.61Zm130,109.26H241.46V209.59a3.77,3.77,0,0,0-7.53,0v43.53h-18V209.59a3.77,3.77,0,0,0-7.53,0v43.53h-18V209.59a3.77,3.77,0,0,0-7.54,0v43.53h-18V209.59a3.77,3.77,0,0,0-7.54,0v43.53h-18V209.59a3.77,3.77,0,0,0-7.54,0v43.53h-18V209.59a3.77,3.77,0,0,0-7.54,0v43.53h-18V238a3.77,3.77,0,0,0-7.54,0v15.17h-18V209.59a3.77,3.77,0,0,0-7.54,0v43.53H39.05V190H257.62Zm8.18-70.61H30.87V172.12H265.8Z"/><path class="cls-1" d="M148.34,54.19a7,7,0,1,0,7,7A7,7,0,0,0,148.34,54.19Zm0,7.53a.57.57,0,1,1,.57-.57A.57.57,0,0,1,148.34,61.72Z"/><path class="cls-1" d="M84.51,227.18a3.77,3.77,0,0,0,3.77-3.77v-7.22a3.77,3.77,0,1,0-7.54,0v7.22A3.77,3.77,0,0,0,84.51,227.18Z"/></g></svg>