<svg xmlns="http://www.w3.org/2000/svg" viewBox="0 0 296.68 300"><defs><style>.cls-1{fill:#ff5100;}</style></defs><g id="Large_Preview" data-name="Large Preview"><path class="cls-1" d="M273.33,212.47v-.21a22,22,0,0,0-1.16-7.07l-12-68.1a27.46,27.46,0,0,0-22.77-22.41c0-7.22-.16-14.24-.37-20.34a16.72,16.72,0,0,1,1.62-8.53,17.88,17.88,0,0,0-.22-17.62A13.53,13.53,0,0,0,230,61.81a13.1,13.1,0,0,0-10.15,1.73,7.14,7.14,0,0,1-4.34,1.17c-1.73-.12-3.6-.23-5.57-.33a15.35,15.35,0,0,1,1.62-6.86,17.84,17.84,0,0,0-.23-17.61,13.54,13.54,0,0,0-8.45-6.39,13.21,13.21,0,0,0-10.16,1.73,7.07,7.07,0,0,1-4.33,1.18c-12.53-.86-32.18-1.35-53.91-1.35-21.56,0-41,.49-53.29,1.33a7,7,0,0,1-4.28-1.16,13,13,0,0,0-17.41,2.9,17.23,17.23,0,0,0-3.61,9.77A17.85,17.85,0,0,0,58,57.49,16.83,16.83,0,0,1,59.63,66c-.48,14.33-.47,33,0,47.55,0,.38,0,.74,0,1.11a27.72,27.72,0,0,0-22.79,23.09l-12,79.85a38.27,38.27,0,0,0,16.84,43.61,38.1,38.1,0,0,0,20,5.63h189.5a22.14,22.14,0,0,0,15.65-37.79l-.61-.58.61-.59A22,22,0,0,0,273.33,212.47ZM47.9,205.8a26,26,0,0,1,13.81-3.89h189.5a10.32,10.32,0,0,1,9.56,6.39l.78,4.41a10.31,10.31,0,0,1-10.34,9.91H72.54a5.89,5.89,0,1,0,0,11.77H251.21a10.36,10.36,0,0,1,0,20.71H61.71a25.92,25.92,0,0,1-13.84-3.91,26.37,26.37,0,0,1-12.76-22.25l1.3-8.71A26.42,26.42,0,0,1,47.9,205.8ZM56,128.38a17.87,17.87,0,0,0,2.28,11.38,13.51,13.51,0,0,0,8.45,6.39,13.26,13.26,0,0,0,10.16-1.73,7,7,0,0,1,4.26-1.16c1.27.09,2,.16,2.74.24s1.61.18,2.91.26a14.94,14.94,0,0,1-1.62,6.66A17.88,17.88,0,0,0,85.38,168a13.5,13.5,0,0,0,8.45,6.39A13.12,13.12,0,0,0,104,172.7a7.06,7.06,0,0,1,4.27-1.16c12.66.85,32.45,1.33,54.3,1.33,21.52,0,40.87-.47,53.09-1.3a6.91,6.91,0,0,1,4.16,1.13,13.5,13.5,0,0,0,7.22,2.13,12.86,12.86,0,0,0,10.19-5,17.26,17.26,0,0,0,3.61-9.78,17.87,17.87,0,0,0-2.19-9.58A16.77,16.77,0,0,1,237,141.9c.16-4.63.26-9.74.32-15.19a15.75,15.75,0,0,1,11.22,12.43l9.17,52a22.12,22.12,0,0,0-6.53-1H61.71a38.1,38.1,0,0,0-20,5.63c-.61.37-1.23.77-1.84,1.2l8.61-57.42A15.85,15.85,0,0,1,56,128.38ZM200.08,45a1.92,1.92,0,0,1,1.09,1,6.07,6.07,0,0,1,.09,5.82,26.78,26.78,0,0,0-3.13,12.15c-29.42-.95-69.62-.59-89.86.79A7,7,0,0,1,104,63.53a13,13,0,0,0-17.41,2.91A17.35,17.35,0,0,0,83,76.2a17.85,17.85,0,0,0,2.17,9.57,16.93,16.93,0,0,1,1.62,8.55c-.37,11-.46,25-.23,37.62l-1.43-.14c-.79-.09-1.69-.19-3.18-.28a18.86,18.86,0,0,0-11.32,2.93,1.44,1.44,0,0,1-1.13.25,1.91,1.91,0,0,1-1.09-.95,6.07,6.07,0,0,1-.08-5.83,28.08,28.08,0,0,0,3.13-14.73c-.49-14.31-.51-32.66,0-46.76a28.14,28.14,0,0,0-3.11-14.69,6,6,0,0,1,.45-6.34c.3-.39.82-.83,1.86-.18A18.82,18.82,0,0,0,82,48.16c12.12-.83,31.25-1.31,52.49-1.31,21.42,0,40.78.48,53.1,1.32a18.85,18.85,0,0,0,11.41-3A1.44,1.44,0,0,1,200.08,45Zm27.13,28.28a2,2,0,0,1,1.09,1,6.07,6.07,0,0,1,.08,5.82,28.14,28.14,0,0,0-3.13,14.72c.5,14.19.5,32.54,0,46.75a28.22,28.22,0,0,0,3.12,14.71,6,6,0,0,1-.44,6.35c-.3.39-.83.83-1.86.18a18.82,18.82,0,0,0-10-3c-.4,0-.81,0-1.21,0-25.45,1.72-79.85,1.7-105.82,0a18.75,18.75,0,0,0-11.32,2.94,1.52,1.52,0,0,1-1.13.25,2,2,0,0,1-1.09-1,6.09,6.09,0,0,1-.08-5.83,28,28,0,0,0,3.13-14.73c-.49-14.3-.5-32.66,0-46.75A28.08,28.08,0,0,0,95.41,80a6,6,0,0,1,.45-6.34c.3-.39.83-.83,1.86-.18a18.85,18.85,0,0,0,11.35,2.94c12.12-.83,31.25-1.31,52.49-1.31,21.41,0,40.77.49,53.11,1.33a18.88,18.88,0,0,0,11.41-3A1.48,1.48,0,0,1,227.21,73.25Z"/></g></svg>