<svg xmlns="http://www.w3.org/2000/svg" viewBox="0 0 296.68 300"><defs><style>.cls-1{fill:#ff5100;}</style></defs><g id="Large_Preview" data-name="Large Preview"><path class="cls-1" d="M211.69,170.93v38.76a6.3,6.3,0,0,0,3.44,11.58,9.18,9.18,0,0,0,9.17-9.17V170.93a6.31,6.31,0,0,0-12.61,0Z"/><path class="cls-1" d="M230.32,262.4H189.39a6.3,6.3,0,1,0,0,12.6h40.93a6.3,6.3,0,0,0,0-12.6Z"/><path class="cls-1" d="M140.81,273.16l12-12,12,12a6.3,6.3,0,1,0,8.91-8.92L157.3,247.75a6.32,6.32,0,0,0-8.91,0L133.74,262.4H66.36a6.3,6.3,0,1,0,0,12.6h70A6.25,6.25,0,0,0,140.81,273.16Z"/><circle class="cls-1" cx="162.64" cy="48.08" r="6.3"/><circle class="cls-1" cx="105.45" cy="60.28" r="5.01"/><circle class="cls-1" cx="125.49" cy="86.79" r="6.3"/><path class="cls-1" d="M150.63,91.51a6.31,6.31,0,0,0,8.9-.55A200.75,200.75,0,0,1,182.6,69.21a11.17,11.17,0,0,1,7.83,3.26,6.31,6.31,0,0,0,8.9.52,6.3,6.3,0,0,0,.52-8.89,22.36,22.36,0,0,0-5.27-4.21c1.68-1.24,3.23-2.36,4.59-3.33a12.88,12.88,0,0,1,19.4,5.59,12.76,12.76,0,0,1,1,4.88,12.89,12.89,0,0,1-3.37,8.67c-1.93,2.14-4,4.4-6.27,6.73a6.3,6.3,0,0,0,.19,8.91,6.3,6.3,0,0,0,8.91-.19c2.31-2.42,4.5-4.76,6.51-7A25.44,25.44,0,0,0,232.14,67a25.16,25.16,0,0,0-1.41-8.29l11-2.24a6.3,6.3,0,1,0-2.52-12.35L235,45l7-10.13a6.3,6.3,0,1,0-10.39-7.13L219.65,45.12l-.6-.36a25.64,25.64,0,0,0-27.2,1.53C180,54.76,163.06,67.94,150.08,82.61A6.32,6.32,0,0,0,150.63,91.51Z"/><path class="cls-1" d="M75.12,49.51a6.3,6.3,0,0,0,3.42,11.14c2.18.21,4.38.44,6.56.69-5.39,7.28-7.37,16.09-7.73,17.84a6.31,6.31,0,0,0,1.24,5.15,6.18,6.18,0,0,0,4.71,2.38c.21,0,.58,0,1.1,0,4.41,0,19.42-.72,27.39-9.95A19.9,19.9,0,0,0,116.36,67a93.52,93.52,0,0,1,11.1,3.69,119.71,119.71,0,0,1,11.71,5.66,6.24,6.24,0,0,0,3,.79,6.3,6.3,0,0,0,3.06-11.82h0c-1.44-.79-3-1.59-4.66-2.44a19.69,19.69,0,0,0,2.95-8.72c1.21-13.54-11.23-26-12.65-27.37a6.3,6.3,0,0,0-9.57,1c-1,1.37-9.11,13.51-7.73,25.6A276.75,276.75,0,0,0,79.73,48.1,6.32,6.32,0,0,0,75.12,49.51ZM104,64.24a7.2,7.2,0,0,1-1.74,4.3c-2.26,2.62-6.31,4-9.65,4.7,1.47-3.09,3.74-6.71,6.8-8.29a6.82,6.82,0,0,1,3.28-.81A10,10,0,0,1,104,64.24Zm23.65-21.42c1.81,2.91,3.64,6.78,3.33,10.21a7.23,7.23,0,0,1-1.88,4.24,7.09,7.09,0,0,1-2.68-3.78C125.45,50.18,126.47,46,127.68,42.82Z"/><path class="cls-1" d="M81.55,241.32H215.13a29.25,29.25,0,0,0,29.22-29.22V126.9a6.31,6.31,0,0,0-12.61,0v85.2a16.64,16.64,0,0,1-16.61,16.62H81.55A16.64,16.64,0,0,1,64.93,212.1V113.15H255.58a5.16,5.16,0,0,1,5.15,5.16,6.31,6.31,0,0,0,12.61,0,17.79,17.79,0,0,0-17.76-17.77H41.1a17.79,17.79,0,0,0-17.76,17.77,6.3,6.3,0,1,0,12.6,0,5.17,5.17,0,0,1,5.16-5.16H52.33V212.1A29.25,29.25,0,0,0,81.55,241.32Z"/></g></svg>