<svg xmlns="http://www.w3.org/2000/svg" viewBox="0 0 296.68 300"><defs><style>.cls-1{fill:#410099;}</style></defs><g id="Large_Preview" data-name="Large Preview"><path class="cls-1" d="M260.69,194.51a27.66,27.66,0,0,0-45.44-21.17l-17.75,14.9V155a35.5,35.5,0,0,0-8.29-22.79l-23.4-27.88V87.85a13.9,13.9,0,0,0,9.6-13.19V46.21a13.87,13.87,0,0,0-13.86-13.86H71.93A13.88,13.88,0,0,0,58.07,46.21V74.66a13.87,13.87,0,0,0,9.6,13.18v16.47L44.28,132.19A35.4,35.4,0,0,0,36,155v95.65a20.05,20.05,0,0,0,20,20h82.4A27.64,27.64,0,0,0,161,282.35H230.3a27.66,27.66,0,0,0,6.19-54.62l14.32-12A27.62,27.62,0,0,0,260.69,194.51ZM230.3,273.14H200.24v-36.9H230.3a18.45,18.45,0,0,1,0,36.9ZM76.88,106V88.52H156.6V106a4.59,4.59,0,0,0,1.08,3l24.47,29.16a26.18,26.18,0,0,1,2.07,2.88h-135a27.16,27.16,0,0,1,2.07-2.88L75.8,109A4.59,4.59,0,0,0,76.88,106Zm111.41,49v41L162.15,217.9a27.54,27.54,0,0,0-7.44,9.85,27.77,27.77,0,0,0-18.14,13.94H45.19V155a25.47,25.47,0,0,1,.46-4.78H187.83A25.47,25.47,0,0,1,188.29,155ZM166,227a18.76,18.76,0,0,1,2.1-2.08l23-19.32L209,227ZM133.58,250.9a27.3,27.3,0,0,0,.57,10.55H56A10.84,10.84,0,0,1,45.2,250.9ZM161,236.24H191v36.9H161a18.45,18.45,0,1,1,0-36.9ZM221.06,227l-22.91-27.32,23-19.32a18.45,18.45,0,1,1,23.72,28.27L223,227ZM67.28,46.21a4.65,4.65,0,0,1,4.65-4.65h89.62a4.65,4.65,0,0,1,4.65,4.65V74.66a4.65,4.65,0,0,1-4.65,4.65H71.93a4.65,4.65,0,0,1-4.65-4.65Z"/><path class="cls-1" d="M83.58,74.61a4.6,4.6,0,0,0,4.6-4.6V50.86a4.61,4.61,0,0,0-9.21,0V70A4.61,4.61,0,0,0,83.58,74.61Z"/><path class="cls-1" d="M105.69,74.61a4.6,4.6,0,0,0,4.6-4.6V50.86a4.61,4.61,0,0,0-9.21,0V70A4.61,4.61,0,0,0,105.69,74.61Z"/><path class="cls-1" d="M127.8,74.61a4.6,4.6,0,0,0,4.6-4.6V50.86a4.61,4.61,0,0,0-9.21,0V70A4.61,4.61,0,0,0,127.8,74.61Z"/><path class="cls-1" d="M149.91,74.61a4.6,4.6,0,0,0,4.6-4.6V50.86a4.61,4.61,0,0,0-9.21,0V70A4.61,4.61,0,0,0,149.91,74.61Z"/><path class="cls-1" d="M84.08,211.63h17v17a4.61,4.61,0,0,0,4.6,4.6h22.16a4.62,4.62,0,0,0,4.61-4.6v-17h17A4.62,4.62,0,0,0,154,207V184.87a4.62,4.62,0,0,0-4.61-4.61h-17v-17a4.62,4.62,0,0,0-4.61-4.61H105.66a4.61,4.61,0,0,0-4.6,4.61v17h-17a4.61,4.61,0,0,0-4.6,4.61V207A4.61,4.61,0,0,0,84.08,211.63Zm43.74-22.16h17v12.95h-17a4.61,4.61,0,0,0-4.6,4.61v17h-13V207a4.62,4.62,0,0,0-4.61-4.61h-17V189.47h17a4.61,4.61,0,0,0,4.61-4.6v-17h13v17A4.6,4.6,0,0,0,127.82,189.47Z"/></g></svg>