<svg xmlns="http://www.w3.org/2000/svg" viewBox="0 0 296.68 300"><defs><style>.cls-1{fill:#ff5100;}</style></defs><g id="Large_Preview" data-name="Large Preview"><path class="cls-1" d="M269.08,223.64H177.49a3.79,3.79,0,0,0-1.82.47,27,27,0,0,0,.21-3.38,3.78,3.78,0,0,0-7.56,0c0,6.44-3.2,11.87-7,11.87H37.41c-3.79,0-7-5.43-7-11.87,0-4.94,1.92-9.44,4.78-11.2a3.77,3.77,0,1,0-3.95-6.43c-5.09,3.12-8.38,10.05-8.38,17.63,0,10.9,6.39,19.43,14.55,19.43H161.32c5.61,0,10.62-4.13,13-10.63a3.8,3.8,0,0,0,3.14,1.67h91.59a3.78,3.78,0,1,0,0-7.56Z"/><path class="cls-1" d="M37.41,203.75A3.79,3.79,0,0,0,41.19,200V149.3a3.77,3.77,0,0,0,1.86.52c2.86,0,4.2,1.44,6.53,4.15,2.57,3,5.77,6.74,12.19,6.8h.11c6.37,0,9.61-3.63,12.22-6.56,2.36-2.65,3.73-4,6.53-4h.09c2.86,0,4.21,1.44,6.54,4.16,2.57,3,5.77,6.73,12.2,6.8h.16c6.32,0,9.57-3.64,12.18-6.56,2.36-2.66,3.72-4,6.54-4h.08c2.87,0,4.22,1.45,6.56,4.17,2.58,3,5.78,6.73,12.22,6.79h.16c6.32,0,9.57-3.64,12.18-6.56,2.37-2.65,3.74-4,6.59-4h.09a3.71,3.71,0,0,0,1.57-.35l-.53,49.88a3.78,3.78,0,1,0,7.55.08l.58-53.36a3.8,3.8,0,0,0-3.78-3.82,3.77,3.77,0,0,0-2.7,1.14,3.78,3.78,0,0,0-2.65-1.13h-.16c-6.33,0-9.58,3.63-12.19,6.56-2.37,2.65-3.74,4-6.56,4h-.08c-2.87,0-4.23-1.44-6.56-4.16-2.58-3-5.79-6.73-12.22-6.79h-.16c-6.32,0-9.57,3.64-12.17,6.57-2.37,2.65-3.73,4-6.54,4h-.09c-2.86,0-4.21-1.45-6.54-4.16-2.57-3-5.77-6.74-12.2-6.8h-.12c-6.36,0-9.6,3.64-12.21,6.56-2.36,2.65-3.73,4-6.54,4h-.08c-2.86,0-4.2-1.45-6.53-4.16-2.57-3-5.77-6.74-12.23-6.8a3.77,3.77,0,0,0-3.08,1.6,3.78,3.78,0,0,0-6.37,2.75V200A3.79,3.79,0,0,0,37.41,203.75Z"/><path class="cls-1" d="M42.8,202.09a3.78,3.78,0,1,0,0,7.56H150.55a3.78,3.78,0,0,0,0-7.56Z"/><path class="cls-1" d="M177.49,204.26h91.59a3.78,3.78,0,1,0,0-7.55H177.49a3.78,3.78,0,1,0,0,7.55Z"/><path class="cls-1" d="M46.08,127a3.52,3.52,0,0,0,.77-.21c27.67-10.66,35.46-5.41,45.33,1.23,8.09,5.45,17.27,11.63,36.82,11.63,21.44,0,34.82-9.33,39.76-17.32,3.16-5.12,3.64-10.48,1.33-15.09-2.84-5.68-6.14-5.89-10.15-5.57-4.53.37-13,1.05-34.35-12.12-35.85-22.06-57.5-14-69.34-3.36a51.86,51.86,0,0,0-13.77,21c-2,5.61-3.46,13-1.62,16.85A4.86,4.86,0,0,0,46.08,127Zm1.5-8.54C48,112.68,51.87,99.69,62.17,91,76.37,79,96.93,80.75,121.63,96c23.48,14.45,33.52,13.64,38.92,13.21.46,0,1.5-.12,1.85-.09a6.69,6.69,0,0,1,.93,1.51c1.4,2.8.23,5.75-1,7.74-4.22,6.84-16.17,13.73-33.33,13.73s-25-5.25-32.61-10.34c-6.56-4.42-12.76-8.59-23.67-8.59C65.76,113.12,57.53,114.85,47.58,118.42Z"/></g></svg>