<svg xmlns="http://www.w3.org/2000/svg" viewBox="0 0 296.68 300"><defs><style>.cls-1{fill:#ffb71b;}</style></defs><g id="Large_Preview" data-name="Large Preview"><path class="cls-1" d="M269.49,250.42H213.64V234.25a39.47,39.47,0,1,0,29.48-72.54c.06-.9.1-1.78.1-2.65a39.47,39.47,0,0,0-77-12.24,44.33,44.33,0,0,0-7.81-5.57C156.76,116,132.22,102,108,101c-16.9-.64-34.41,5.08-43.42,18.58C39.69,120.85,24.92,143,24.92,164.52c0,10.47,3.54,20,10,26.93a35.71,35.71,0,0,0,12.67,8.64,28.37,28.37,0,0,0,5.63,20c6.94,8.87,19.46,13.5,37.2,13.83v16.49H27.18a3.85,3.85,0,0,0,0,7.69H196.43a4,4,0,0,0,1.09.18,3.89,3.89,0,0,0,1.09-.18H208.7a3.42,3.42,0,0,0,2.19,0h58.6a3.85,3.85,0,1,0,0-7.69ZM96.23,157.26,82.74,144.71a3.85,3.85,0,1,0-5.24,5.63l12.9,12V188l-21.67-20a3.83,3.83,0,0,0-5.43.22,3.85,3.85,0,0,0,.22,5.43L90.4,198.5v27.75c-15.18-.29-25.65-3.94-31.09-10.82a20.29,20.29,0,0,1-4.17-13,53.68,53.68,0,0,0,11,1.09,3.85,3.85,0,0,0,0-7.69A43.25,43.25,0,0,1,53,193.92a1.15,1.15,0,0,0-.17-.06h-.06c-14.59-4.73-20.12-17.35-20.12-29.33,0-16.47,10.31-33.43,27.91-36.73a40.41,40.41,0,0,0-2,9.9A3.84,3.84,0,0,0,62,141.82a3.73,3.73,0,0,0,2.77-.87,3.86,3.86,0,0,0,1.37-2.66c1.67-21.5,22.06-30.37,41.49-29.6,19.26.75,38.73,10.83,42.5,28.87a68.13,68.13,0,0,0-22.11-3.41,3.84,3.84,0,1,0,0,7.68c9.05,0,17.06,1.59,23.71,4.65a3.81,3.81,0,0,0,2.61,1.32,35.79,35.79,0,0,1,7.4,5.35,34,34,0,0,1,3.58,4s0,0,0,0h0a32.19,32.19,0,0,1,4.53,8.34c0,.1.06.19.1.28a30.81,30.81,0,0,1,1.79,10.29c0,9.77-5.06,19.64-14.79,22.06a57,57,0,0,0,.43-8.59,3.86,3.86,0,0,0-3.93-3.75,3.79,3.79,0,0,0-2.7,1.19,3.85,3.85,0,0,0-1.06,2.74c.27,11.26-2.83,20.09-9.21,26.25-9.15,8.81-22.78,10.15-28.54,10.31v-38.9l16-17.19a3.85,3.85,0,0,0-.2-5.43,3.85,3.85,0,0,0-5.43.2l-17,18.29a2.78,2.78,0,0,0-.21.27,2.56,2.56,0,0,0-.2.26,2.75,2.75,0,0,0-.2.38,2.44,2.44,0,0,0-.14.28c0,.13-.09.27-.13.41a3,3,0,0,0-.08.32,2.72,2.72,0,0,0,0,.42,2.4,2.4,0,0,0,0,.28v64.51H98.09V160.53A3.82,3.82,0,0,0,96.23,157.26ZM112,234c6.43-.13,19.47-1.45,30.07-9.28a39.44,39.44,0,0,0,51.61,8.59v17.09H112Zm89.37-8.47V182.13a3.85,3.85,0,0,0-7.69,0v18.05l-6.84-6.31a3.84,3.84,0,0,0-5.21,5.65l12.05,11.12v13.12a31.73,31.73,0,0,1-45.91-4.21,36.41,36.41,0,0,0,7.49-13.28c15.92-1.58,24.23-16,24.23-30.16a39.2,39.2,0,0,0-7.08-22.31,31.78,31.78,0,0,1,63.12,5.26,33.71,33.71,0,0,1-.39,5s0,0,0,0v.05a32,32,0,0,1-5.5,13.35,3.84,3.84,0,0,0,.9,5.36,3.77,3.77,0,0,0,2.23.71,3.85,3.85,0,0,0,3.13-1.61,39.81,39.81,0,0,0,6-12.63,31.79,31.79,0,1,1-28.21,55.73V195.65l8.11-8.73a3.85,3.85,0,0,0-.2-5.43,3.85,3.85,0,0,0-5.43.2L207,191.52c-.08.08-.13.18-.2.26a2.69,2.69,0,0,0-.2.27c-.08.12-.14.25-.21.37s-.1.19-.14.29-.08.27-.12.41a3,3,0,0,0-.09.32c0,.13,0,.27,0,.41a2.85,2.85,0,0,0,0,.29v56.28h-4.58Z"/><path class="cls-1" d="M159.73,74.75a18.14,18.14,0,0,0,18.12,18.12h65.28a18.12,18.12,0,0,0,0-36.24A17.93,17.93,0,0,0,235,58.57a25.58,25.58,0,0,0-48.25.43,18.1,18.1,0,0,0-27.06,15.75ZM188,72.17a3.84,3.84,0,1,0,7.45-1.89,18,18,0,0,0-2.19-5.1A17.88,17.88,0,0,1,228.56,64a18,18,0,0,0-2.85,5.74,3.84,3.84,0,1,0,7.39,2.12,10.43,10.43,0,1,1,10,13.33H177.85a10.44,10.44,0,1,1,10.12-13Z"/></g></svg>