<svg xmlns="http://www.w3.org/2000/svg" viewBox="0 0 296.68 300"><defs><style>.cls-1{fill:#ff5100;}</style></defs><g id="Large_Preview" data-name="Large Preview"><path class="cls-1" d="M244.39,154.14a21.62,21.62,0,0,0-21.6-21.6H148.34a21.72,21.72,0,0,0-21,16.54h-7V46.6A21.62,21.62,0,0,0,98.71,25H73.89a21.62,21.62,0,0,0-21.6,21.6V154.14a63,63,0,0,0,56.77,62.65L97.9,268.88a5.06,5.06,0,0,0,4.94,6.12H198a5.06,5.06,0,0,0,4.94-6.12l-11.28-52.63A63,63,0,0,0,244.39,154.14Zm-96-11.49h74.45a11.54,11.54,0,0,1,10.31,6.43H138A11.51,11.51,0,0,1,148.34,142.65ZM151.55,212a5.07,5.07,0,0,0,5.06,5.06h24.86l10.25,47.79H109.1l11.09-51.79a5.06,5.06,0,0,0-4.94-6.12,52.79,52.79,0,0,1-52.61-47.79H234A52.79,52.79,0,0,1,181.43,207H156.61A5.07,5.07,0,0,0,151.55,212ZM73.89,35.11H98.71A11.5,11.5,0,0,1,110.19,46.6v3.22H62.4V46.6A11.51,11.51,0,0,1,73.89,35.11Zm36.3,24.82v89.15H62.4V59.93Z"/><path class="cls-1" d="M78,80.61H94.57a5.06,5.06,0,1,0,0-10.11H78a5.06,5.06,0,1,0,0,10.11Z"/></g></svg>